<?xml version="1.0" encoding="UTF-8"?>
<svg version="1.1" xmlns="http://www.w3.org/2000/svg" width="1024" height="1024">
<path d="M0 0 C30.36 0 60.72 0 92 0 C92.08060607 45.96784958 92.08060607 45.96784958 92.09765625 65.34960938 C92.1094864 78.68971305 92.12333254 92.02979132 92.15087891 105.36987305 C92.17093821 115.08884958 92.1837459 124.80780534 92.18817699 134.526802 C92.19076334 139.66341791 92.19675549 144.79997443 92.21146011 149.93657112 C92.45411307 238.26047886 92.45411307 238.26047886 63 268 C62.195625 268.86625 61.39125 269.7325 60.5625 270.625 C59.716875 271.40875 58.87125 272.1925 58 273 C57.36449219 273.59167969 56.72898437 274.18335938 56.07421875 274.79296875 C41.89798266 287.1108075 22.61913347 293.29216517 4 294 C3.10667969 294.03996094 2.21335937 294.07992188 1.29296875 294.12109375 C-26.87754648 294.76218981 -52.55035227 285.70400407 -73.39453125 266.83203125 C-76.97891826 263.17694627 -76.97891826 263.17694627 -78 261 C-77.68474319 255.35340032 -75.99435226 249.97441501 -74.4375 244.5625 C-74.08655273 243.32209961 -74.08655273 243.32209961 -73.72851562 242.05664062 C-73.15636985 240.03661574 -72.57874796 238.01814324 -72 236 C-68.26940944 237.50900292 -66.3630832 239.68372511 -63.8125 242.75 C-54.38718779 253.42074498 -42.92994411 258.04595708 -28.921875 259.8203125 C-21.57705705 260.15682806 -14.20865501 259.43060408 -7 258 C-6.67 257.34 -6.34 256.68 -6 256 C-5.175 255.773125 -4.35 255.54625 -3.5 255.3125 C7.1488266 251.31919003 12.84576271 242.80210853 17.47265625 232.82421875 C22.83107862 219.77966284 23.29989826 206.90074093 23.29052734 192.99755859 C23.29652296 191.20907819 23.30333085 189.42060036 23.31088257 187.63212585 C23.32843632 182.80792466 23.33323319 177.98379455 23.33451414 173.1595645 C23.33594138 170.14021928 23.3402216 167.12089183 23.34550858 164.10155106 C23.36396771 153.55369174 23.37218362 143.00588275 23.37060547 132.45800781 C23.36940247 122.64672568 23.39054655 112.83566295 23.4220928 103.02443635 C23.44827654 94.57823768 23.45897201 86.13211065 23.45769465 77.68587172 C23.457186 72.65095948 23.46281652 67.61624287 23.48405075 62.58137131 C23.50347072 57.84846503 23.50353199 53.11594046 23.48901749 48.3830204 C23.48693355 46.65209327 23.4916054 44.92114198 23.5037384 43.19025612 C23.72290053 30.05889076 23.72290053 30.05889076 19 18 C13.28279658 13.11655541 7.34983289 13.33032957 0 13 C0 8.71 0 4.42 0 0 Z " fill="#193576" transform="translate(336,352)"/>
<path d="M0 0 C55.3771234 -1.11348103 109.09893574 18.59879909 157.8515625 43.12890625 C153.69964831 44.51287765 150.12868363 43.52648045 145.9140625 42.81640625 C114.08901203 37.80481277 81.74086869 37.18099939 49.6015625 38.87890625 C48.78518311 38.92180786 47.96880371 38.96470947 47.12768555 39.00891113 C-11.53220849 42.18823989 -71.94846431 56.92448262 -124.26611328 84.15087891 C-126.08481706 85.09585002 -127.91086508 86.02514414 -129.73828125 86.953125 C-146.99305011 95.82378263 -164.69704342 106.09826828 -179.33984375 118.91015625 C-182.1484375 121.12890625 -182.1484375 121.12890625 -185.1484375 121.12890625 C-185.31098142 113.80100321 -185.43518168 106.47349175 -185.5111227 99.14414787 C-185.54758124 95.74030544 -185.5969855 92.33770049 -185.67651367 88.93457031 C-185.76746872 85.01773149 -185.80115296 81.10138497 -185.83203125 77.18359375 C-185.86816025 75.96775604 -185.90428925 74.75191833 -185.94151306 73.49923706 C-185.94534675 65.22789488 -185.94534675 65.22789488 -183.64648438 62.05761719 C-181.88250585 60.51874356 -180.1664166 59.30744437 -178.1484375 58.12890625 C-177.18164062 57.4740625 -176.21484375 56.81921875 -175.21875 56.14453125 C-169.39245234 52.65184353 -169.39245234 52.65184353 -166.98925781 51.22949219 C-165.16111536 50.13648606 -163.35343613 49.01496914 -161.546875 47.88671875 C-112.92435982 17.91478989 -56.82173937 2.32644839 0 0 Z " fill="#50B941" transform="translate(624.1484375,389.87109375)"/>
<path d="M0 0 C2.50479971 0.7098164 2.50479971 0.7098164 6.2421875 0.55078125 C6.2421875 1.21078125 6.2421875 1.87078125 6.2421875 2.55078125 C7.08265625 2.65519531 7.923125 2.75960938 8.7890625 2.8671875 C12.60445716 3.62249753 15.9613265 4.91202772 19.4921875 6.48828125 C20.17821045 6.79330566 20.8642334 7.09833008 21.57104492 7.41259766 C34.5297186 13.30728329 46.64038748 19.95548123 57.2421875 29.55078125 C58.16 30.35 59.0778125 31.14921875 60.0234375 31.97265625 C66.78152567 37.91511309 66.78152567 37.91511309 68.8359375 40.75 C70.20531294 42.84575485 70.20531294 42.84575485 73.2421875 43.55078125 C73.2421875 44.21078125 73.2421875 44.87078125 73.2421875 45.55078125 C70.02594966 45.13578282 67.34696105 44.21014509 64.4296875 42.86328125 C3.68865379 15.38045288 -67.84893753 23.06813933 -128.8203125 45.48828125 C-154.27625089 55.10256485 -177.71733067 67.18445785 -200.47216797 82.08374023 C-202.87185639 83.62398033 -205.30599643 85.09523548 -207.7578125 86.55078125 C-208.08174079 81.32269367 -208.31612495 76.10054703 -208.47192383 70.86474609 C-208.53689906 69.08897128 -208.62532908 67.31388139 -208.73852539 65.54052734 C-209.62625454 51.26455726 -209.62625454 51.26455726 -206.54763794 46.79309082 C-203.09292375 43.25641982 -199.04720175 40.94638975 -194.7578125 38.55078125 C-192.50514596 37.08396065 -190.29241678 35.5640199 -188.0703125 34.05078125 C-159.98783068 16.07236584 -129.51184781 3.83721689 -96.7578125 -2.44921875 C-95.56841064 -2.69478516 -95.56841064 -2.69478516 -94.35498047 -2.9453125 C-64.82880125 -8.88120897 -28.96777063 -8.38088319 0 0 Z " fill="#1491D8" transform="translate(646.7578125,352.44921875)"/>
<path d="M0 0 C-3.20336822 2.83374881 -5.78087253 3.5205537 -10 4 C-10 4.66 -10 5.32 -10 6 C-11.65 6 -13.3 6 -15 6 C-15 6.66 -15 7.32 -15 8 C-15.99 8.33 -16.98 8.66 -18 9 C-18.66 9.66 -19.32 10.32 -20 11 C-22.95473812 12.28315067 -25.95109213 13.42837088 -28.95703125 14.5859375 C-32.09001437 16.04182953 -34.35290757 17.80376142 -37 20 C-38.67423882 20.70833181 -40.34965014 21.41459896 -42.0390625 22.0859375 C-45.22840823 23.57260463 -48.03713892 25.59547186 -50.9296875 27.5859375 C-52.49819086 28.65725489 -54.11471007 29.65869231 -55.75 30.625 C-58.15195912 32.02372636 -58.15195912 32.02372636 -60.6875 34.1875 C-63 36 -63 36 -65 36 C-64.7525 37.918125 -64.7525 37.918125 -64.5 39.875 C-63.98267089 45.02611989 -63.88754571 50.14053251 -63.875 55.3125 C-63.87048828 56.08899902 -63.86597656 56.86549805 -63.86132812 57.66552734 C-63.8714681 61.57702174 -64.03941059 65.18051352 -65 69 C-64.26394531 68.52949219 -63.52789062 68.05898438 -62.76953125 67.57421875 C-61.30580078 66.64029297 -61.30580078 66.64029297 -59.8125 65.6875 C-58.84957031 65.07261719 -57.88664062 64.45773437 -56.89453125 63.82421875 C-55.93933594 63.22222656 -54.98414063 62.62023437 -54 62 C-53.19949219 61.49082031 -52.39898437 60.98164063 -51.57421875 60.45703125 C-49 59 -49 59 -45.86328125 57.7109375 C-40.67951883 55.55371093 -35.98985179 52.5093154 -31.1875 49.625 C13.9725081 22.99724407 63.73833984 5.52655532 116 0 C116.83958252 -0.09498779 117.67916504 -0.18997559 118.54418945 -0.2878418 C128.73354051 -1.30307694 138.95870337 -1.1990963 149.1875 -1.1875 C150.16831543 -1.18689575 151.14913086 -1.1862915 152.15966797 -1.18566895 C167.19718546 -1.16052054 182.05730997 -0.83617801 197 1 C198.14339844 1.13954102 199.28679687 1.27908203 200.46484375 1.42285156 C213.25022559 3.02955243 225.84517424 4.93411427 238.3359375 8.1171875 C243.83750628 9.44272539 249.39357846 10.25897733 255 11 C255 11.33 255 11.66 255 12 C246.49755929 12.16427633 238.06686892 11.69243148 229.58847046 11.14440918 C148.95458047 6.02822946 65.15951228 18.40852092 -7.11767578 56.02197266 C-8.93637956 56.96694377 -10.76242758 57.89623789 -12.58984375 58.82421875 C-29.84461261 67.69487638 -47.54860592 77.96936203 -62.19140625 90.78125 C-65 93 -65 93 -68 93 C-68.16254392 85.67209696 -68.28674418 78.3445855 -68.3626852 71.01524162 C-68.39914374 67.61139919 -68.448548 64.20879424 -68.52807617 60.80566406 C-68.61903122 56.88882524 -68.65271546 52.97247872 -68.68359375 49.0546875 C-68.71972275 47.83884979 -68.75585175 46.62301208 -68.79307556 45.37033081 C-68.79690925 37.09898863 -68.79690925 37.09898863 -66.49804688 33.92871094 C-64.73406835 32.38983731 -63.0179791 31.17853812 -61 30 C-60.03320312 29.34515625 -59.06640625 28.6903125 -58.0703125 28.015625 C-52.15283391 24.46827709 -52.15283391 24.46827709 -49.84960938 23.10498047 C-47.99600664 21.99761432 -46.16158205 20.86301244 -44.328125 19.72265625 C-35.96362272 14.58474782 -27.33806207 10.02531328 -18.5244751 5.71200562 C-17.30452434 5.1146363 -16.08635944 4.51360533 -14.87005615 3.90884399 C-13.15269948 3.05799457 -11.42609718 2.2258853 -9.69921875 1.39453125 C-8.69721436 0.90831299 -7.69520996 0.42209473 -6.6628418 -0.07885742 C-3.86005563 -1.0484102 -2.71389293 -1.07257821 0 0 Z " fill="#03843F" transform="translate(507,418)"/>
<path d="M0 0 C30.36 0 60.72 0 92 0 C92.04030303 46.65300117 92.04030303 46.65300117 92.04882812 66.1796875 C92.0547653 79.67057678 92.06175083 93.16145981 92.07543945 106.65234375 C92.08540336 116.47699802 92.09185751 126.30164723 92.09408849 136.12630641 C92.09539269 141.32887134 92.09846022 146.5314218 92.10573006 151.73398209 C92.11251716 156.63075477 92.11461146 161.52750704 92.11310768 166.42428398 C92.1133828 168.22137882 92.11537196 170.01847434 92.11920547 171.81556511 C92.12418471 174.27014504 92.12298265 176.724648 92.12025452 179.17922974 C92.12316736 179.88936002 92.1260802 180.5994903 92.12908131 181.33113968 C92.11709694 185.32387496 91.76836808 189.08205142 91 193 C88.57407935 189.36111903 88.72561163 186.70524834 88.75949097 182.50202942 C88.75778212 181.7317583 88.75607327 180.96148718 88.75431263 180.16787452 C88.75101044 177.57902638 88.76203335 174.9904357 88.77294922 172.40161133 C88.77351318 170.54897569 88.77319708 168.6963396 88.77206421 166.84370422 C88.77148909 161.80681348 88.78326915 156.77001749 88.79721212 151.73314881 C88.80969297 146.47206235 88.81088789 141.21097386 88.81326294 135.94987488 C88.8194855 125.98390058 88.83590681 116.01797002 88.85596192 106.05201501 C88.88247096 92.58737733 88.89328729 79.12272774 88.90496635 65.65807056 C88.92378686 44.43868093 88.96362738 23.21938361 89 2 C60.29 2 31.58 2 2 2 C2 4.97 2 7.94 2 11 C4.97 11 7.94 11 11 11 C11 11.33 11 11.66 11 12 C7.37 12.33 3.74 12.66 0 13 C0 8.71 0 4.42 0 0 Z " fill="#152766" transform="translate(336,352)"/>
<path d="M0 0 C1.67968616 0.00502803 3.35937378 0.00958862 5.0390625 0.01367188 C9.10941196 0.02456736 13.17968929 0.04175916 17.25 0.0625 C17.58 0.7225 17.91 1.3825 18.25 2.0625 C17.0753418 2.092229 17.0753418 2.092229 15.87695312 2.12255859 C-47.64522264 3.80053784 -112.0326777 15.56348629 -166.11230469 51.13574219 C-167.75 52.0625 -167.75 52.0625 -169.75 52.0625 C-169.75 51.0725 -169.75 50.0825 -169.75 49.0625 C-168.19925781 48.42634766 -168.19925781 48.42634766 -166.6171875 47.77734375 C-163.19424194 46.30926519 -160.0665248 44.55234939 -156.875 42.625 C-137.82696479 31.52839055 -117.57987595 23.15835712 -96.75 16.0625 C-95.26137451 15.55396484 -95.26137451 15.55396484 -93.74267578 15.03515625 C-79.60626325 10.28566498 -65.36299268 7.1438127 -50.68359375 4.578125 C-48.03507563 4.1126065 -45.39218722 3.62498975 -42.75 3.125 C-28.44281613 0.46219724 -14.51858476 -0.07624703 0 0 Z " fill="#1981C1" transform="translate(625.75,374.9375)"/>
<path d="M0 0 C-3.20336822 2.83374881 -5.78087253 3.5205537 -10 4 C-10 4.66 -10 5.32 -10 6 C-11.65 6 -13.3 6 -15 6 C-15 6.66 -15 7.32 -15 8 C-15.99 8.33 -16.98 8.66 -18 9 C-18.66 9.66 -19.32 10.32 -20 11 C-22.95473812 12.28315067 -25.95109213 13.42837088 -28.95703125 14.5859375 C-32.09001437 16.04182953 -34.35290757 17.80376142 -37 20 C-38.67423882 20.70833181 -40.34965014 21.41459896 -42.0390625 22.0859375 C-45.22840823 23.57260463 -48.03713892 25.59547186 -50.9296875 27.5859375 C-52.49819086 28.65725489 -54.11471007 29.65869231 -55.75 30.625 C-58.15195912 32.02372636 -58.15195912 32.02372636 -60.6875 34.1875 C-63 36 -63 36 -65 36 C-64.7525 37.918125 -64.7525 37.918125 -64.5 39.875 C-63.98267089 45.02611989 -63.88754571 50.14053251 -63.875 55.3125 C-63.87048828 56.08899902 -63.86597656 56.86549805 -63.86132812 57.66552734 C-63.8714681 61.57702174 -64.03941059 65.18051352 -65 69 C-64.26394531 68.52949219 -63.52789062 68.05898438 -62.76953125 67.57421875 C-61.30580078 66.64029297 -61.30580078 66.64029297 -59.8125 65.6875 C-58.84957031 65.07261719 -57.88664062 64.45773437 -56.89453125 63.82421875 C-55.93933594 63.22222656 -54.98414063 62.62023437 -54 62 C-53.09636719 61.40832031 -52.19273437 60.81664062 -51.26171875 60.20703125 C-50.51535156 59.80871094 -49.76898438 59.41039062 -49 59 C-48.34 59.33 -47.68 59.66 -47 60 C-47.80824219 60.53109375 -48.61648438 61.0621875 -49.44921875 61.609375 C-51.05216797 62.66898437 -51.05216797 62.66898437 -52.6875 63.75 C-53.74324219 64.44609375 -54.79898437 65.1421875 -55.88671875 65.859375 C-59.00401862 67.93917062 -59.00401862 67.93917062 -61.76953125 70.265625 C-64 72 -64 72 -66 72 C-66.27341578 66.73512094 -66.47215375 61.47442399 -66.60424805 56.20410156 C-66.65933093 54.4149577 -66.73423072 52.62630387 -66.82983398 50.83886719 C-67.59818704 36.09634967 -67.59818704 36.09634967 -63.88916016 31.23120117 C-61.0306792 29.11492853 -58.19521498 27.55527095 -55 26 C-53.20037874 24.88381807 -51.40849848 23.75504828 -49.625 22.61328125 C-47.75557313 21.50357807 -45.88034274 20.40360457 -44 19.3125 C-42.98905273 18.72525146 -41.97810547 18.13800293 -40.93652344 17.53295898 C-32.8496926 12.91182471 -24.61523229 8.65027578 -16.25 4.5625 C-15.08984375 3.98862549 -13.9296875 3.41475098 -12.734375 2.82348633 C-11.6515625 2.3055249 -10.56875 1.78756348 -9.453125 1.25390625 C-8.49567383 0.79314697 -7.53822266 0.3323877 -6.55175781 -0.14233398 C-3.81990896 -1.06053003 -2.64820162 -1.02288541 0 0 Z " fill="#1C8F4C" transform="translate(507,418)"/>
<path d="M0 0 C6.90708163 -0.50233321 12.8137087 0.76470114 19.45849609 2.42773438 C25.93166483 4.03565518 32.38403886 5.12554253 39 6 C39 6.33 39 6.66 39 7 C30.43814469 7.16602574 21.94489954 6.69164645 13.40664673 6.1449585 C-0.41146942 5.26706039 -14.14903526 4.71043279 -28 5 C-28 4.01 -28 3.02 -28 2 C-17.77 2 -7.54 2 3 2 C2.01 1.34 1.02 0.68 0 0 Z " fill="#028235" transform="translate(723,423)"/>
<path d="M0 0 C0.99 0.33 1.98 0.66 3 1 C-3.92567568 11.59628378 -3.92567568 11.59628378 -7 15 C-7.66 15 -8.32 15 -9 15 C-9 15.66 -9 16.32 -9 17 C-16.89412459 23.52123335 -26.09319391 27.14521623 -36.3125 27.125 C-37.60800781 27.12757813 -38.90351563 27.13015625 -40.23828125 27.1328125 C-43.59562923 27.01427685 -46.7083127 26.64302729 -50 26 C-50 25.67 -50 25.34 -50 25 C-49.39526855 24.94465088 -48.79053711 24.88930176 -48.16748047 24.83227539 C-45.40310534 24.57796135 -42.63905593 24.32025918 -39.875 24.0625 C-38.92367188 23.97548828 -37.97234375 23.88847656 -36.9921875 23.79882812 C-29.94715786 23.21685339 -29.94715786 23.21685339 -23 22 C-22.67 21.34 -22.34 20.68 -22 20 C-20.7625 19.6596875 -20.7625 19.6596875 -19.5 19.3125 C-9.9315238 15.72432143 -4.86974851 8.65907049 0 0 Z " fill="#142561" transform="translate(352,588)"/>
<path d="M0 0 C7.2515469 0.0854024 14.50289984 0.18064174 21.75416374 0.28752708 C25.12335654 0.33690014 28.49248668 0.3822601 31.86181641 0.421875 C46.68126543 0.5982314 61.31506903 0.88008885 76 3 C76 3.33 76 3.66 76 4 C75.11876465 3.95456055 75.11876465 3.95456055 74.21972656 3.90820312 C59.31271686 3.17442378 44.41469164 2.87051949 29.49108887 2.82275391 C27.61159701 2.81602971 25.73211359 2.80589505 23.85266113 2.79199219 C11.96748376 2.7111153 0.33327104 3.26957085 -11.48291016 4.5690918 C-15.34964753 4.97996508 -19.11358123 5.08275239 -23 5 C-23 4.67 -23 4.34 -23 4 C-17.88763219 1.92565268 -13.53669107 1.75575935 -8.125 1.875 C-6.949375 1.88853516 -6.949375 1.88853516 -5.75 1.90234375 C-3.83319945 1.92571937 -1.91655809 1.96158347 0 2 C0 1.34 0 0.68 0 0 Z " fill="#91E241" transform="translate(630,415)"/>
<path d="M0 0 C3.73059056 1.50900292 5.6369168 3.68372511 8.1875 6.75 C14.69493413 14.11730716 21.21319698 18.07880074 30.51953125 21.140625 C32.80356867 21.93194505 34.86856152 22.86720752 37 24 C31.33320985 25.59832543 27.17950686 24.44465689 22 22 C19.84168216 20.59257234 17.84597058 19.08959523 15.84375 17.46875 C13.84945728 15.81670314 13.84945728 15.81670314 10.8125 14.0625 C7.76564852 11.82814225 6.09739 9.63160376 4.078125 6.48828125 C3.05532293 4.83516932 3.05532293 4.83516932 1 4 C0.87625 5.051875 0.7525 6.10375 0.625 7.1875 C0.08859218 10.45958771 -0.63880035 13.00536076 -2 16 C-2.33 16 -2.66 16 -3 16 C-2.40984815 10.49191603 -1.43336231 5.35121931 0 0 Z " fill="#182862" transform="translate(264,588)"/>
<path d="M0 0 C4.95 0.33 9.9 0.66 15 1 C15 1.66 15 2.32 15 3 C31.335 3.495 31.335 3.495 48 4 C48 4.33 48 4.66 48 5 C33.71912964 8.80823209 14.68889082 8.20811375 1 2 C0.67 1.34 0.34 0.68 0 0 Z " fill="#15265E" transform="translate(301,639)"/>
<path d="M0 0 C-3.20336822 2.83374881 -5.78087253 3.5205537 -10 4 C-10 4.66 -10 5.32 -10 6 C-11.65 6 -13.3 6 -15 6 C-15 6.66 -15 7.32 -15 8 C-15.99 8.33 -16.98 8.66 -18 9 C-18.66 9.66 -19.32 10.32 -20 11 C-21.93730806 11.88110804 -23.899622 12.70791689 -25.875 13.5 C-29.32135974 14.88870516 -32.70455034 16.28063496 -36 18 C-36.66 17.34 -37.32 16.68 -38 16 C-34.39846927 14.09912906 -30.79329612 12.2052656 -27.1875 10.3125 C-26.18267578 9.78205078 -25.17785156 9.25160156 -24.14257812 8.70507812 C-19.12811956 6.07692138 -14.09082852 3.49623071 -8.98828125 1.04296875 C-8.12372314 0.62426514 -7.25916504 0.20556152 -6.3684082 -0.22583008 C-3.75012082 -1.08167889 -2.54587626 -0.9465579 0 0 Z " fill="#279C45" transform="translate(507,418)"/>
<path d="M0 0 C3.1379998 1.3741136 4.11603893 2.15053699 6.3125 5 C9.48667554 8.8642137 13.25535761 11.48906536 17.375 14.25 C17.99930908 14.67410156 18.62361816 15.09820313 19.2668457 15.53515625 C23.67412465 18.41730052 28.01683413 20.29843117 33 22 C33 22.66 33 23.32 33 24 C33.66 24.33 34.32 24.66 35 25 C29.45775799 24.5381465 25.49056575 23.01484288 20.75 20.0625 C20.10393799 19.66643555 19.45787598 19.27037109 18.79223633 18.86230469 C11.3742978 14.17304563 2.7792973 8.66035182 0 0 Z " fill="#17275E" transform="translate(259,612)"/>
<path d="M0 0 C-0.62003906 0.27972656 -1.24007812 0.55945313 -1.87890625 0.84765625 C-2.76449219 1.24855469 -3.65007812 1.64945312 -4.5625 2.0625 C-6.04943359 2.73539062 -6.04943359 2.73539062 -7.56640625 3.421875 C-10.04291188 4.56010967 -12.50669695 5.71413705 -14.96484375 6.890625 C-15.63378662 7.20894287 -16.30272949 7.52726074 -16.99194336 7.85522461 C-18.31663546 8.48672828 -19.63912963 9.12286612 -20.95922852 9.76391602 C-23.83512056 11.13044778 -25.77325573 12 -29 12 C-29 12.66 -29 13.32 -29 14 C-29.91523438 14.48210937 -30.83046875 14.96421875 -31.7734375 15.4609375 C-32.9740595 16.09876794 -34.1745748 16.73679926 -35.375 17.375 C-35.97828125 17.69210937 -36.5815625 18.00921875 -37.203125 18.3359375 C-39.78550382 19.7132062 -41.91830581 20.91830581 -44 23 C-46.125 22.625 -46.125 22.625 -48 22 C-8.09105181 -2.69701727 -8.09105181 -2.69701727 0 0 Z " fill="#1E8ACD" transform="translate(506,365)"/>
<path d="M0 0 C3.4305926 1.50589649 6.73144454 3.1704767 10 5 C5.53574482 6.48808506 1.59420388 5.48221845 -3 4.8125 C-3.91523437 4.69841797 -4.83046875 4.58433594 -5.7734375 4.46679688 C-6.65257812 4.33982422 -7.53171875 4.21285156 -8.4375 4.08203125 C-9.64212891 3.91537964 -9.64212891 3.91537964 -10.87109375 3.74536133 C-13.60547277 2.78801509 -14.4844892 1.4106246 -16 -1 C-10.74405511 -4.40017288 -5.52469542 -1.85057035 0 0 Z " fill="#56B840" transform="translate(772,428)"/>
<path d="M0 0 C0.66 0.33 1.32 0.66 2 1 C1.67 1.33 1.34 1.66 1 2 C0.91156207 4.44830426 0.88471248 6.86820599 0.90234375 9.31640625 C0.9037587 10.04746078 0.90517365 10.77851532 0.90663147 11.53172302 C0.91224592 13.87535632 0.92480078 16.21889539 0.9375 18.5625 C0.94251314 20.14778508 0.94707637 21.73307166 0.95117188 23.31835938 C0.96222003 27.2122761 0.97949428 31.10612205 1 35 C1.99 35.33 2.98 35.66 4 36 C-0.875 40 -0.875 40 -2 40 C-2.04935509 34.62485095 -2.08569802 29.24983315 -2.10986328 23.87451172 C-2.11993484 22.04506127 -2.13359276 20.21562697 -2.15087891 18.38623047 C-2.17507677 15.76005066 -2.18647132 13.13408325 -2.1953125 10.5078125 C-2.20563507 9.68693146 -2.21595764 8.86605042 -2.22659302 8.02029419 C-2.22699184 6.01210858 -2.1224954 4.00444618 -2 2 C-1.34 1.34 -0.68 0.68 0 0 Z " fill="#2376B8" transform="translate(441,399)"/>
<path d="M0 0 C5.55313696 0.64411386 11.01255636 1.50057804 16.5 2.5625 C17.22703125 2.70107422 17.9540625 2.83964844 18.703125 2.98242188 C20.46918037 3.31936665 22.23465426 3.65935683 24 4 C24 4.33 24 4.66 24 5 C14.24109087 5.19418031 4.54736559 4.58921295 -5.1875 4 C-6.82355035 3.90335157 -8.45961798 3.80699522 -10.09570312 3.7109375 C-14.06400917 3.47732207 -18.03206103 3.23976618 -22 3 C-22 2.67 -22 2.34 -22 2 C-14.74 1.67 -7.48 1.34 0 1 C0 0.67 0 0.34 0 0 Z " fill="#298F3B" transform="translate(738,425)"/>
<path d="M0 0 C0.33 0 0.66 0 1 0 C1.83316233 6.45700806 2.10922771 12.81037529 2.125 19.3125 C2.12951172 20.08899902 2.13402344 20.86549805 2.13867188 21.66552734 C2.1285319 25.57702174 1.96058941 29.18051352 1 33 C1.73605469 32.52949219 2.47210938 32.05898438 3.23046875 31.57421875 C4.20628906 30.95160156 5.18210937 30.32898438 6.1875 29.6875 C7.15042969 29.07261719 8.11335938 28.45773437 9.10546875 27.82421875 C10.06066406 27.22222656 11.01585937 26.62023437 12 26 C12.90363281 25.40832031 13.80726563 24.81664062 14.73828125 24.20703125 C15.48464844 23.80871094 16.23101562 23.41039062 17 23 C17.66 23.33 18.32 23.66 19 24 C18.19175781 24.53109375 17.38351562 25.0621875 16.55078125 25.609375 C14.94783203 26.66898437 14.94783203 26.66898437 13.3125 27.75 C11.72888672 28.79414063 11.72888672 28.79414063 10.11328125 29.859375 C6.99598138 31.93917062 6.99598138 31.93917062 4.23046875 34.265625 C2 36 2 36 0 36 C0 24.12 0 12.24 0 0 Z " fill="#1CA04E" transform="translate(441,454)"/>
<path d="M0 0 C0.33 0 0.66 0 1 0 C1 17.82 1 35.64 1 54 C1.99 54 2.98 54 4 54 C3.67 54.99 3.34 55.98 3 57 C2.01 57 1.02 57 0 57 C0 38.19 0 19.38 0 0 Z " fill="#2E7F60" transform="translate(439,454)"/>
<path d="M0 0 C2.97 0.33 5.94 0.66 9 1 C9 1.66 9 2.32 9 3 C11.64 3.33 14.28 3.66 17 4 C17.33 3.01 17.66 2.02 18 1 C18.39832031 1.49371094 18.79664063 1.98742187 19.20703125 2.49609375 C19.73683594 3.13675781 20.26664063 3.77742188 20.8125 4.4375 C21.33457031 5.07558594 21.85664062 5.71367187 22.39453125 6.37109375 C24.00834411 8.2548275 24.00834411 8.2548275 27 9 C27 9.66 27 10.32 27 11 C22.83780764 10.46294292 19.45847853 8.92124562 15.69140625 7.1875 C10.54549411 4.91702498 5.26146811 2.98423218 0 1 C0 0.67 0 0.34 0 0 Z " fill="#2F92BF" transform="translate(693,387)"/>
<path d="M0 0 C-3.06032459 1.62912132 -6.12363037 3.252557 -9.1875 4.875 C-10.48397461 5.56529297 -10.48397461 5.56529297 -11.80664062 6.26953125 C-12.64775391 6.71425781 -13.48886719 7.15898437 -14.35546875 7.6171875 C-15.51018677 8.22989502 -15.51018677 8.22989502 -16.68823242 8.85498047 C-19.08229997 10.04076321 -21.50776212 11.04011256 -24 12 C-22.86639347 8.59918042 -22.48770245 8.41092754 -19.5078125 6.7734375 C-18.80269531 6.3815625 -18.09757812 5.9896875 -17.37109375 5.5859375 C-16.62988281 5.18632812 -15.88867188 4.78671875 -15.125 4.375 C-14.39152344 3.96765625 -13.65804688 3.5603125 -12.90234375 3.140625 C-4.59864486 -1.42716565 -4.59864486 -1.42716565 0 0 Z " fill="#11773C" transform="translate(502,473)"/>
<path d="M0 0 C-2.91340833 2.91340833 -6.50959237 3.52059782 -10.375 4.625 C-11.14328125 4.85445313 -11.9115625 5.08390625 -12.703125 5.3203125 C-16.38259506 6.38977785 -19.10175248 7 -23 7 C-23 6.34 -23 5.68 -23 5 C-20.48283718 4.15389485 -17.96220727 3.32303233 -15.4375 2.5 C-14.73302734 2.26152344 -14.02855469 2.02304687 -13.30273438 1.77734375 C-8.67877023 0.28574241 -4.85697889 -0.25529455 0 0 Z " fill="#35A639" transform="translate(552,402)"/>
<path d="M0 0 C13.86 0.495 13.86 0.495 28 1 C28 1.33 28 1.66 28 2 C16.78 2.33 5.56 2.66 -6 3 C-6 2.67 -6 2.34 -6 2 C-4.02 2 -2.04 2 0 2 C0 1.34 0 0.68 0 0 Z " fill="#2B9248" transform="translate(664,426)"/>
<path d="M0 0 C-1.33506596 4.00519788 -3.94623143 5.32197597 -7.3125 7.5625 C-7.89451172 7.96146484 -8.47652344 8.36042969 -9.07617188 8.77148438 C-11.96217171 10.72925776 -14.82493735 12.54966274 -18 14 C-15.65332142 8.29016709 -6.41474871 0 0 0 Z " fill="#147742" transform="translate(462,494)"/>
<path d="M0 0 C2 2 2 2 2.23046875 4.390625 C2.155862 9.35536521 2.05443055 14.12325871 1 19 C-1.46827522 15.29758718 -1.23759026 13.3408889 -1.1875 8.9375 C-1.18105469 7.68839844 -1.17460937 6.43929687 -1.16796875 5.15234375 C-1 2 -1 2 0 0 Z " fill="#1B2D64" transform="translate(426,526)"/>
<path d="M0 0 C4.9723422 1.49170266 9.41845739 3.60457417 14 6 C10.52487282 7.15837573 8.86329714 6.77265943 5.3125 6.0625 C4.31863281 5.86785156 3.32476563 5.67320312 2.30078125 5.47265625 C1.16189453 5.23869141 1.16189453 5.23869141 0 5 C0 3.35 0 1.7 0 0 Z " fill="#60B148" transform="translate(768,427)"/>
<path d="M0 0 C-0.66 0 -1.32 0 -2 0 C-2 0.66 -2 1.32 -2 2 C-7.24385089 3.7479503 -11.47322267 4.19392201 -17 4 C-14.4691537 1.4691537 -12.51862293 1.17129418 -9.0625 0.3125 C-8.00160156 0.04050781 -6.94070313 -0.23148438 -5.84765625 -0.51171875 C-3 -1 -3 -1 0 0 Z " fill="#132056" transform="translate(369,639)"/>
<path d="M0 0 C2 1.25 2 1.25 4 3 C4 4.32 4 5.64 4 7 C2.35 7 0.7 7 -1 7 C-1 6.34 -1 5.68 -1 5 C-1.66 4.67 -2.32 4.34 -3 4 C-1 1 -1 1 0 0 Z " fill="#1E97DC" transform="translate(706,384)"/>
<path d="M0 0 C0.33 0 0.66 0 1 0 C1 6.6 1 13.2 1 20 C1.99 20 2.98 20 4 20 C3.67 20.99 3.34 21.98 3 23 C2.01 23 1.02 23 0 23 C0 15.41 0 7.82 0 0 Z " fill="#277558" transform="translate(439,488)"/>
<path d="M0 0 C-5.28 1.32 -10.56 2.64 -16 4 C-16 3.34 -16 2.68 -16 2 C-14.09021367 1.2733203 -12.17181485 0.56924412 -10.25 -0.125 C-9.18265625 -0.51945312 -8.1153125 -0.91390625 -7.015625 -1.3203125 C-4 -2 -4 -2 0 0 Z " fill="#127E3D" transform="translate(579,444)"/>
<path d="M0 0 C5.77759884 -0.12036664 11.27959989 0.1679418 17 1 C17 1.66 17 2.32 17 3 C11.39 3 5.78 3 0 3 C0 2.01 0 1.02 0 0 Z " fill="#108138" transform="translate(695,425)"/>
<path d="M0 0 C-2.26568725 2.26568725 -3.43233985 2.55280451 -6.5 3.25 C-7.2940625 3.44078125 -8.088125 3.6315625 -8.90625 3.828125 C-9.5971875 3.88484375 -10.288125 3.9415625 -11 4 C-11.66 3.34 -12.32 2.68 -13 2 C-8.49646738 0.24252386 -4.82360189 -0.19294408 0 0 Z " fill="#3DAA3E" transform="translate(552,402)"/>
<path d="M0 0 C-2.35968744 2.09749995 -3.54616994 2.96905704 -6.75 3.1875 C-7.86375 3.0946875 -7.86375 3.0946875 -9 3 C-9 2.34 -9 1.68 -9 1 C-5.57367167 -0.61798838 -3.61944899 -1.34053666 0 0 Z " fill="#30A042" transform="translate(517,414)"/>
<path d="M0 0 C0 0.66 0 1.32 0 2 C-5.45769231 5.10096154 -5.45769231 5.10096154 -8.203125 4.58984375 C-8.79609375 4.39519531 -9.3890625 4.20054687 -10 4 C-8.71086513 3.32845067 -7.41859796 2.66291141 -6.125 2 C-5.40570313 1.62875 -4.68640625 1.2575 -3.9453125 0.875 C-2 0 -2 0 0 0 Z " fill="#142158" transform="translate(380,633)"/>
<path d="M0 0 C-2.39763185 2.39763185 -3.33273498 2.34280586 -6.625 2.625 C-7.44226563 2.69976562 -8.25953125 2.77453125 -9.1015625 2.8515625 C-9.72804688 2.90054687 -10.35453125 2.94953125 -11 3 C-7.48550811 -0.37391222 -4.73940561 -0.27342725 0 0 Z " fill="#38A734" transform="translate(568,398)"/>
<path d="M0 0 C-1.13474948 3.40424844 -1.96811304 4.21653709 -5 6 C-5.99 5.67 -6.98 5.34 -8 5 C-2.25 0 -2.25 0 0 0 Z " fill="#142359" transform="translate(393,624)"/>
<path d="M0 0 C1 3 1 3 -0.3125 5.6875 C-0.869375 6.450625 -1.42625 7.21375 -2 8 C-2.66 8 -3.32 8 -4 8 C-2.87548273 5.0280615 -1.77706209 2.66559313 0 0 Z " fill="#16275B" transform="translate(411,600)"/>
<path d="M0 0 C-5.2734375 3.22265625 -5.2734375 3.22265625 -7 4 C-7.66 3.67 -8.32 3.34 -9 3 C-5.83583464 -0.30799106 -4.50236011 -1.35070803 0 0 Z " fill="#187C43" transform="translate(487,481)"/>
<path d="M0 0 C2 1 2 1 2 1 Z " fill="#29437B" transform="translate(324,609)"/>
<path d="M0 0 C2 1 2 1 2 1 Z " fill="#2E9945" transform="translate(673,429)"/>
<path d="M0 0 C2 1 2 1 2 1 Z " fill="#55B498" transform="translate(639,379)"/>
<path d="M0 0 C2 1 2 1 2 1 Z " fill="#3C96CB" transform="translate(473,376)"/>
<path d="" fill="#3D9CCE" transform="translate(0,0)"/>
<path d="M0 0 C2 1 2 1 2 1 Z " fill="#39A0D5" transform="translate(578,345)"/>
<path d="" fill="#464747" transform="translate(0,0)"/>
<path d="" fill="#2E4373" transform="translate(0,0)"/>
<path d="" fill="#2F4475" transform="translate(0,0)"/>
<path d="" fill="#2D4272" transform="translate(0,0)"/>
<path d="" fill="#304775" transform="translate(0,0)"/>
<path d="" fill="#354B7A" transform="translate(0,0)"/>
<path d="" fill="#2E477D" transform="translate(0,0)"/>
<path d="" fill="#364A7C" transform="translate(0,0)"/>
<path d="" fill="#298955" transform="translate(0,0)"/>
<path d="" fill="#278950" transform="translate(0,0)"/>
<path d="" fill="#26894F" transform="translate(0,0)"/>
<path d="" fill="#278E4B" transform="translate(0,0)"/>
<path d="" fill="#228D46" transform="translate(0,0)"/>
<path d="" fill="#21924A" transform="translate(0,0)"/>
<path d="" fill="#367F8B" transform="translate(0,0)"/>
<path d="" fill="#358795" transform="translate(0,0)"/>
<path d="" fill="#269043" transform="translate(0,0)"/>
<path d="" fill="#2C9B47" transform="translate(0,0)"/>
<path d="" fill="#349AA7" transform="translate(0,0)"/>
<path d="" fill="#67BA6F" transform="translate(0,0)"/>
<path d="" fill="#62AF89" transform="translate(0,0)"/>
<path d="" fill="#61AB89" transform="translate(0,0)"/>
<path d="" fill="#67BE73" transform="translate(0,0)"/>
<path d="" fill="#5DB481" transform="translate(0,0)"/>
<path d="" fill="#3FA3A2" transform="translate(0,0)"/>
<path d="" fill="#50AC9C" transform="translate(0,0)"/>
<path d="" fill="#49AB99" transform="translate(0,0)"/>
<path d="" fill="#54B19B" transform="translate(0,0)"/>
<path d="" fill="#51AF9C" transform="translate(0,0)"/>
<path d="" fill="#43A5A6" transform="translate(0,0)"/>
<path d="" fill="#51B19F" transform="translate(0,0)"/>
<path d="" fill="#47AB9F" transform="translate(0,0)"/>
<path d="" fill="#4EB09B" transform="translate(0,0)"/>
<path d="" fill="#4FB09B" transform="translate(0,0)"/>
<path d="" fill="#48ABA4" transform="translate(0,0)"/>
<path d="" fill="#44AAA1" transform="translate(0,0)"/>
<path d="" fill="#55B496" transform="translate(0,0)"/>
<path d="" fill="#54B399" transform="translate(0,0)"/>
<path d="" fill="#4CADA1" transform="translate(0,0)"/>
<path d="" fill="#3CA0CC" transform="translate(0,0)"/>
<path d="" fill="#3C9FCC" transform="translate(0,0)"/>
<path d="" fill="#3CA1D1" transform="translate(0,0)"/>
<path d="" fill="#339ECE" transform="translate(0,0)"/>
<path d="" fill="#3D9DCE" transform="translate(0,0)"/>
<path d="" fill="#369CD2" transform="translate(0,0)"/>
<path d="" fill="#379BCE" transform="translate(0,0)"/>
<path d="" fill="#399DD2" transform="translate(0,0)"/>
<path d="" fill="#3C9FD2" transform="translate(0,0)"/>
</svg>
